<?xml version="1.0" encoding="UTF-8"?>
<svg id="Layer_1" data-name="Layer 1" xmlns="http://www.w3.org/2000/svg" viewBox="0 0 171.12 199.98">
  <defs>
    <style>
      .cls-1 {
        fill: #212529;
        stroke-width: 0px;
      }
    </style>
  </defs>
  <path class="cls-1" d="M99.99,199.98c-26.87,0-52.03-10.36-70.83-29.16C10.36,152.02,0,126.86,0,99.99S10.36,47.96,29.16,29.16C47.96,10.36,73.12,0,99.99,0s52.03,10.36,70.83,29.16l.3.3-12.13,11.91-.14-.14c-15.65-15.65-36.53-24.23-58.86-24.23s-43.22,8.59-58.81,24.18c-15.59,15.59-24.18,36.48-24.18,58.81s8.59,43.22,24.18,58.81c15.59,15.59,36.48,24.18,58.81,24.18s43.22-8.59,58.81-24.18l12.02,12.02c-18.8,18.8-43.96,29.16-70.83,29.16Z"/>
  <path class="cls-1" d="M99.99,167.45c-37.2,0-67.46-30.26-67.46-67.46S62.79,32.53,99.99,32.53s67.46,30.26,67.46,67.46v.28s-17-.11-17-.11v-.17c0-27.82-22.64-50.46-50.46-50.46s-50.46,22.64-50.46,50.46,22.64,50.46,50.46,50.46v17Z"/>
  <path class="cls-1" d="M99.99,133.3l-.09-17h.09c8.84,0,16.31-7.47,16.31-16.31s-7.47-16.31-16.31-16.31-16.31,7.47-16.31,16.31h-17c0-18.37,14.94-33.31,33.31-33.31s33.31,14.94,33.31,33.31-14.94,33.31-33.31,33.31Z"/>
</svg>