<svg width="236" height="236" viewBox="0 0 236 236" fill="none" xmlns="http://www.w3.org/2000/svg">
<mask id="path-1-inside-1_332_1276" fill="white">
<path d="M118 0C94.6618 -2.78305e-07 71.8477 6.92058 52.4427 19.8866C33.0377 32.8526 17.9134 51.2817 8.98222 72.8434C0.0510746 94.405 -2.28572 118.131 2.26734 141.021C6.82039 163.91 18.0588 184.936 34.5614 201.439L85.9741 150.026C79.64 143.692 75.3264 135.622 73.5789 126.836C71.8313 118.05 72.7282 108.944 76.1562 100.668C79.5842 92.3918 85.3893 85.3183 92.8374 80.3416C100.286 75.3649 109.042 72.7086 118 72.7086L118 0Z"/>
</mask>
<path d="M118 0C94.6618 -2.78305e-07 71.8477 6.92058 52.4427 19.8866C33.0377 32.8526 17.9134 51.2817 8.98222 72.8434C0.0510746 94.405 -2.28572 118.131 2.26734 141.021C6.82039 163.91 18.0588 184.936 34.5614 201.439L85.9741 150.026C79.64 143.692 75.3264 135.622 73.5789 126.836C71.8313 118.05 72.7282 108.944 76.1562 100.668C79.5842 92.3918 85.3893 85.3183 92.8374 80.3416C100.286 75.3649 109.042 72.7086 118 72.7086L118 0Z" fill="#FFBA04" stroke="black" stroke-width="2" mask="url(#path-1-inside-1_332_1276)"/>
<mask id="path-2-inside-2_332_1276" fill="white">
<path d="M118 0C137.405 2.31405e-07 156.511 4.78573 173.625 13.9333C190.739 23.0808 205.332 36.3078 216.113 52.4427C226.894 68.5775 233.53 87.1222 235.432 106.434C237.334 125.746 234.444 145.228 227.018 163.157C219.592 181.085 207.859 196.905 192.858 209.215C177.858 221.526 160.053 229.947 141.021 233.733C121.988 237.518 102.316 236.552 83.7465 230.919C65.1769 225.286 48.2831 215.16 34.5615 201.439L85.9742 150.026C91.2409 155.293 97.7251 159.179 104.853 161.341C111.98 163.503 119.531 163.874 126.836 162.421C134.141 160.968 140.975 157.736 146.733 153.011C152.49 148.286 156.994 142.213 159.844 135.332C162.694 128.451 163.803 120.973 163.073 113.561C162.343 106.148 159.796 99.0304 155.658 92.8374C151.52 86.6445 145.919 81.5676 139.35 78.0565C132.781 74.5455 125.448 72.7086 118 72.7086L118 0Z"/>
</mask>
<path d="M118 0C137.405 2.31405e-07 156.511 4.78573 173.625 13.9333C190.739 23.0808 205.332 36.3078 216.113 52.4427C226.894 68.5775 233.53 87.1222 235.432 106.434C237.334 125.746 234.444 145.228 227.018 163.157C219.592 181.085 207.859 196.905 192.858 209.215C177.858 221.526 160.053 229.947 141.021 233.733C121.988 237.518 102.316 236.552 83.7465 230.919C65.1769 225.286 48.2831 215.16 34.5615 201.439L85.9742 150.026C91.2409 155.293 97.7251 159.179 104.853 161.341C111.98 163.503 119.531 163.874 126.836 162.421C134.141 160.968 140.975 157.736 146.733 153.011C152.49 148.286 156.994 142.213 159.844 135.332C162.694 128.451 163.803 120.973 163.073 113.561C162.343 106.148 159.796 99.0304 155.658 92.8374C151.52 86.6445 145.919 81.5676 139.35 78.0565C132.781 74.5455 125.448 72.7086 118 72.7086L118 0Z" fill="#BFBDCE" stroke="black" stroke-width="2" mask="url(#path-2-inside-2_332_1276)"/>
<path d="M22.1942 104.249C20.8685 104.249 19.6877 104.021 18.652 103.565C17.6222 103.103 16.8084 102.47 16.2106 101.665C15.6187 100.854 15.3139 99.9192 15.2962 98.8597H19.1669C19.1906 99.3036 19.3356 99.6942 19.6019 100.032C19.8742 100.363 20.2352 100.621 20.685 100.804C21.1348 100.987 21.6409 101.079 22.2031 101.079C22.7891 101.079 23.3069 100.976 23.7567 100.768C24.2066 100.561 24.5587 100.274 24.8132 99.9073C25.0677 99.5404 25.195 99.1172 25.195 98.6378C25.195 98.1525 25.0588 97.7234 24.7866 97.3505C24.5202 96.9717 24.1355 96.6758 23.6325 96.4627C23.1353 96.2496 22.5434 96.1431 21.8569 96.1431H20.1612V93.32H21.8569C22.4369 93.32 22.9489 93.2193 23.3928 93.0181C23.8426 92.8169 24.1918 92.5387 24.4403 92.1836C24.6889 91.8226 24.8132 91.4023 24.8132 90.9229C24.8132 90.4672 24.7037 90.0677 24.4847 89.7244C24.2717 89.3752 23.9698 89.103 23.5792 88.9077C23.1945 88.7124 22.7447 88.6147 22.2298 88.6147C21.7089 88.6147 21.2325 88.7094 20.8004 88.8988C20.3684 89.0823 20.0221 89.3456 19.7617 89.6889C19.5013 90.0322 19.3622 90.4347 19.3445 90.8963H15.6602C15.6779 89.8487 15.9768 88.9254 16.5568 88.1264C17.1368 87.3274 17.9181 86.703 18.9006 86.2532C19.889 85.7975 21.0046 85.5696 22.2475 85.5696C23.5022 85.5696 24.6001 85.7975 25.5412 86.2532C26.4822 86.7089 27.2132 87.3245 27.734 88.0998C28.2608 88.8692 28.5212 89.7333 28.5153 90.6921C28.5212 91.7101 28.2045 92.5594 27.5653 93.2401C26.9321 93.9207 26.1064 94.3527 25.0884 94.5362V94.6783C26.426 94.8499 27.444 95.3145 28.1424 96.0721C28.8467 96.8237 29.1959 97.7648 29.19 98.8952C29.1959 99.931 28.897 100.851 28.2933 101.656C27.6955 102.461 26.8699 103.094 25.8164 103.556C24.7629 104.018 23.5555 104.249 22.1942 104.249ZM32.6723 104L40.2096 89.0852V88.9609H31.4294V85.8182H44.1869V89.0053L36.6407 104H32.6723ZM56.7734 100.591V99.6321C56.7734 98.9041 56.9273 98.2353 57.2351 97.6257C57.5488 97.0102 58.0015 96.5189 58.5934 96.152C59.1912 95.7791 59.9192 95.5927 60.7773 95.5927C61.6474 95.5927 62.3783 95.7762 62.9702 96.1431C63.5679 96.5101 64.0178 97.0013 64.3196 97.6168C64.6274 98.2264 64.7812 98.8982 64.7812 99.6321V100.591C64.7812 101.319 64.6274 101.991 64.3196 102.606C64.0118 103.216 63.5591 103.704 62.9613 104.071C62.3635 104.444 61.6355 104.63 60.7773 104.63C59.9073 104.63 59.1764 104.444 58.5845 104.071C57.9927 103.704 57.5429 103.216 57.2351 102.606C56.9273 101.991 56.7734 101.319 56.7734 100.591ZM59.3569 99.6321V100.591C59.3569 101.011 59.4575 101.408 59.6587 101.781C59.8659 102.153 60.2388 102.34 60.7773 102.34C61.3159 102.34 61.6829 102.156 61.8782 101.789C62.0794 101.422 62.18 101.023 62.18 100.591V99.6321C62.18 99.2 62.0853 98.7976 61.896 98.4247C61.7066 98.0518 61.3337 97.8654 60.7773 97.8654C60.2447 97.8654 59.8748 98.0518 59.6676 98.4247C59.4605 98.7976 59.3569 99.2 59.3569 99.6321ZM47.4428 90.1861V89.2273C47.4428 88.4934 47.5997 87.8216 47.9134 87.212C48.227 86.5965 48.6798 86.1052 49.2717 85.7383C49.8694 85.3713 50.5915 85.1879 51.4379 85.1879C52.3138 85.1879 53.0477 85.3713 53.6396 85.7383C54.2314 86.1052 54.6812 86.5965 54.989 87.212C55.2968 87.8216 55.4506 88.4934 55.4506 89.2273V90.1861C55.4506 90.92 55.2938 91.5917 54.9801 92.2013C54.6723 92.811 54.2196 93.2992 53.6218 93.6662C53.0299 94.0272 52.302 94.2077 51.4379 94.2077C50.5737 94.2077 49.8428 94.0243 49.245 93.6573C48.6532 93.2844 48.2034 92.7962 47.8956 92.1925C47.5938 91.5829 47.4428 90.9141 47.4428 90.1861ZM50.044 89.2273V90.1861C50.044 90.6181 50.1446 91.0176 50.3459 91.3846C50.553 91.7515 50.917 91.935 51.4379 91.935C51.9824 91.935 52.3523 91.7515 52.5476 91.3846C52.7488 91.0176 52.8494 90.6181 52.8494 90.1861V89.2273C52.8494 88.7952 52.7547 88.3928 52.5653 88.0199C52.3759 87.647 52.0001 87.4606 51.4379 87.4606C50.9111 87.4606 50.5471 87.65 50.3459 88.0288C50.1446 88.4076 50.044 88.8071 50.044 89.2273ZM48.6147 104L61.1147 85.8182H63.4407L50.9407 104H48.6147Z" fill="#44350D"/>
</svg>
