<svg width="423" height="259" viewBox="0 0 423 259" fill="none" xmlns="http://www.w3.org/2000/svg">
<path d="M324.199 14V3.09091H331.038V4.50781H325.844V7.83168H330.681V9.24325H325.844V12.5831H331.102V14H324.199ZM336.928 5.81818V7.09659H332.459V5.81818H336.928ZM333.657 3.85795H335.25V11.5977C335.25 11.9066 335.296 12.1392 335.389 12.2955C335.481 12.4482 335.6 12.5529 335.745 12.6097C335.895 12.663 336.056 12.6896 336.23 12.6896C336.358 12.6896 336.47 12.6808 336.566 12.663C336.662 12.6452 336.736 12.631 336.79 12.6204L337.077 13.9361C336.985 13.9716 336.853 14.0071 336.683 14.0426C336.513 14.0817 336.299 14.103 336.044 14.1065C335.625 14.1136 335.234 14.0391 334.872 13.8828C334.51 13.7266 334.217 13.4851 333.993 13.1584C333.769 12.8317 333.657 12.4215 333.657 11.9279V3.85795ZM340.458 9.14205V14H338.866V3.09091H340.437V7.14986H340.538C340.73 6.70952 341.023 6.35973 341.417 6.1005C341.811 5.84126 342.326 5.71165 342.962 5.71165C343.523 5.71165 344.013 5.82706 344.432 6.05788C344.855 6.28871 345.181 6.63317 345.412 7.09126C345.646 7.54581 345.764 8.11399 345.764 8.79581V14H344.171V8.98757C344.171 8.38743 344.017 7.92223 343.708 7.59197C343.399 7.25817 342.969 7.09126 342.419 7.09126C342.042 7.09126 341.705 7.17116 341.406 7.33097C341.112 7.49077 340.879 7.72514 340.709 8.03409C340.542 8.33949 340.458 8.70881 340.458 9.14205ZM351.415 14.1651C350.609 14.1651 349.915 13.9929 349.333 13.6484C348.754 13.3004 348.306 12.8121 347.99 12.1836C347.678 11.5515 347.521 10.8111 347.521 9.96236C347.521 9.12429 347.678 8.38565 347.99 7.74645C348.306 7.10724 348.747 6.60831 349.311 6.24964C349.879 5.89098 350.544 5.71165 351.303 5.71165C351.765 5.71165 352.213 5.788 352.646 5.9407C353.079 6.09339 353.468 6.3331 353.812 6.6598C354.157 6.98651 354.428 7.41087 354.627 7.93288C354.826 8.45135 354.926 9.08168 354.926 9.82386V10.3885H348.422V9.19531H353.365C353.365 8.77628 353.28 8.40518 353.109 8.08203C352.939 7.75533 352.699 7.49787 352.39 7.30966C352.085 7.12145 351.726 7.02734 351.314 7.02734C350.867 7.02734 350.476 7.13743 350.142 7.3576C349.812 7.57422 349.556 7.85831 349.375 8.20987C349.198 8.55788 349.109 8.93608 349.109 9.34446V10.2766C349.109 10.8235 349.205 11.2887 349.396 11.6722C349.592 12.0558 349.863 12.3487 350.211 12.5511C350.559 12.75 350.966 12.8494 351.431 12.8494C351.733 12.8494 352.008 12.8068 352.257 12.7216C352.506 12.6328 352.72 12.5014 352.901 12.3274C353.083 12.1534 353.221 11.9386 353.317 11.6829L354.824 11.9545C354.704 12.3984 354.487 12.7873 354.175 13.1211C353.866 13.4513 353.477 13.7088 353.008 13.8935C352.543 14.0746 352.012 14.1651 351.415 14.1651ZM356.693 14V5.81818H358.232V7.1179H358.317C358.467 6.67756 358.729 6.33132 359.106 6.07919C359.486 5.82351 359.915 5.69567 360.395 5.69567C360.494 5.69567 360.611 5.69922 360.746 5.70632C360.885 5.71342 360.993 5.7223 361.071 5.73295V7.25639C361.007 7.23864 360.894 7.21911 360.73 7.1978C360.567 7.17294 360.404 7.16051 360.24 7.16051C359.864 7.16051 359.528 7.24041 359.234 7.40021C358.942 7.55646 358.712 7.77486 358.541 8.0554C358.371 8.33239 358.285 8.64844 358.285 9.00355V14H356.693ZM365.683 14.1651C364.877 14.1651 364.183 13.9929 363.6 13.6484C363.021 13.3004 362.574 12.8121 362.258 12.1836C361.945 11.5515 361.789 10.8111 361.789 9.96236C361.789 9.12429 361.945 8.38565 362.258 7.74645C362.574 7.10724 363.014 6.60831 363.579 6.24964C364.147 5.89098 364.811 5.71165 365.571 5.71165C366.033 5.71165 366.48 5.788 366.913 5.9407C367.347 6.09339 367.735 6.3331 368.08 6.6598C368.424 6.98651 368.696 7.41087 368.895 7.93288C369.094 8.45135 369.193 9.08168 369.193 9.82386V10.3885H362.689V9.19531H367.632C367.632 8.77628 367.547 8.40518 367.377 8.08203C367.206 7.75533 366.967 7.49787 366.658 7.30966C366.352 7.12145 365.994 7.02734 365.582 7.02734C365.134 7.02734 364.744 7.13743 364.41 7.3576C364.08 7.57422 363.824 7.85831 363.643 8.20987C363.465 8.55788 363.376 8.93608 363.376 9.34446V10.2766C363.376 10.8235 363.472 11.2887 363.664 11.6722C363.859 12.0558 364.131 12.3487 364.479 12.5511C364.827 12.75 365.234 12.8494 365.699 12.8494C366.001 12.8494 366.276 12.8068 366.525 12.7216C366.773 12.6328 366.988 12.5014 367.169 12.3274C367.35 12.1534 367.489 11.9386 367.585 11.6829L369.092 11.9545C368.971 12.3984 368.755 12.7873 368.442 13.1211C368.133 13.4513 367.744 13.7088 367.276 13.8935C366.81 14.0746 366.279 14.1651 365.683 14.1651ZM376.143 10.6069V5.81818H377.741V14H376.175V12.5831H376.09C375.902 13.0199 375.6 13.3839 375.184 13.6751C374.772 13.9627 374.259 14.1065 373.645 14.1065C373.119 14.1065 372.654 13.9911 372.249 13.7603C371.848 13.5259 371.532 13.1797 371.301 12.7216C371.074 12.2635 370.96 11.6971 370.96 11.0224V5.81818H372.553V10.8306C372.553 11.3881 372.707 11.832 373.016 12.1623C373.325 12.4925 373.727 12.6577 374.22 12.6577C374.519 12.6577 374.815 12.5831 375.11 12.4339C375.408 12.2848 375.655 12.0593 375.85 11.7575C376.049 11.4556 376.147 11.0721 376.143 10.6069ZM379.881 14V5.81818H381.41V7.14986H381.511C381.682 6.69886 381.96 6.3473 382.347 6.09517C382.735 5.83949 383.198 5.71165 383.738 5.71165C384.285 5.71165 384.743 5.83949 385.112 6.09517C385.485 6.35085 385.76 6.70241 385.938 7.14986H386.023C386.218 6.71307 386.529 6.36506 386.955 6.10582C387.381 5.84304 387.889 5.71165 388.479 5.71165C389.221 5.71165 389.826 5.94425 390.295 6.40945C390.767 6.87464 391.003 7.57599 391.003 8.51349V14H389.411V8.66264C389.411 8.10866 389.26 7.70739 388.958 7.45881C388.656 7.21023 388.296 7.08594 387.877 7.08594C387.358 7.08594 386.955 7.24574 386.667 7.56534C386.38 7.88139 386.236 8.288 386.236 8.78516V14H384.649V8.56143C384.649 8.11754 384.51 7.76065 384.233 7.49077C383.956 7.22088 383.596 7.08594 383.152 7.08594C382.85 7.08594 382.571 7.16584 382.316 7.32564C382.063 7.48189 381.859 7.70028 381.703 7.98082C381.55 8.26136 381.474 8.58629 381.474 8.95561V14H379.881Z" fill="black"/>
<path d="M13.1985 14V3.09091H17.1935C17.9677 3.09091 18.6087 3.21875 19.1165 3.47443C19.6243 3.72656 20.0043 4.06925 20.2564 4.50249C20.5085 4.93217 20.6346 5.4169 20.6346 5.95668C20.6346 6.41122 20.5511 6.79474 20.3842 7.10724C20.2173 7.41619 19.9936 7.66477 19.7131 7.85298C19.4361 8.03764 19.1307 8.17259 18.7969 8.25781V8.36435C19.1591 8.3821 19.5124 8.49929 19.8569 8.71591C20.2049 8.92898 20.4925 9.2326 20.7198 9.62678C20.9471 10.021 21.0607 10.5004 21.0607 11.065C21.0607 11.6225 20.9293 12.1232 20.6665 12.5671C20.4073 13.0075 20.006 13.3572 19.4627 13.6165C18.9194 13.8722 18.2251 14 17.38 14H13.1985ZM14.8445 12.5884H17.2202C18.0085 12.5884 18.5732 12.4357 18.9141 12.1303C19.255 11.8249 19.4254 11.4432 19.4254 10.9851C19.4254 10.6406 19.3384 10.3246 19.1644 10.0369C18.9904 9.74929 18.7418 9.52024 18.4187 9.34979C18.0991 9.17933 17.7191 9.09411 17.2788 9.09411H14.8445V12.5884ZM14.8445 7.81037H17.0497C17.419 7.81037 17.7511 7.73935 18.0458 7.5973C18.3441 7.45526 18.5803 7.25639 18.7543 7.00071C18.9318 6.74148 19.0206 6.43608 19.0206 6.08452C19.0206 5.63352 18.8626 5.25533 18.5465 4.94993C18.2305 4.64453 17.7457 4.49183 17.0923 4.49183H14.8445V7.81037ZM22.8851 14V5.81818H24.4778V14H22.8851ZM23.6895 4.55575C23.4125 4.55575 23.1745 4.46342 22.9757 4.27876C22.7804 4.09055 22.6827 3.86683 22.6827 3.6076C22.6827 3.34482 22.7804 3.12109 22.9757 2.93643C23.1745 2.74822 23.4125 2.65412 23.6895 2.65412C23.9664 2.65412 24.2026 2.74822 24.3979 2.93643C24.5968 3.12109 24.6962 3.34482 24.6962 3.6076C24.6962 3.86683 24.5968 4.09055 24.3979 4.27876C24.2026 4.46342 23.9664 4.55575 23.6895 4.55575ZM30.4397 5.81818V7.09659H25.9706V5.81818H30.4397ZM27.1691 3.85795H28.7618V11.5977C28.7618 11.9066 28.808 12.1392 28.9003 12.2955C28.9926 12.4482 29.1116 12.5529 29.2572 12.6097C29.4063 12.663 29.5679 12.6896 29.7419 12.6896C29.8698 12.6896 29.9816 12.6808 30.0775 12.663C30.1734 12.6452 30.248 12.631 30.3012 12.6204L30.5889 13.9361C30.4965 13.9716 30.3651 14.0071 30.1947 14.0426C30.0242 14.0817 29.8112 14.103 29.5555 14.1065C29.1365 14.1136 28.7458 14.0391 28.3836 13.8828C28.0214 13.7266 27.7284 13.4851 27.5047 13.1584C27.281 12.8317 27.1691 12.4215 27.1691 11.9279V3.85795ZM35.56 14.1651C34.7681 14.1651 34.0863 13.9858 33.5146 13.6271C32.9464 13.2649 32.5096 12.766 32.2042 12.1303C31.8988 11.4947 31.7461 10.7667 31.7461 9.94638C31.7461 9.11541 31.9023 8.3821 32.2148 7.74645C32.5273 7.10724 32.9677 6.60831 33.5359 6.24964C34.104 5.89098 34.7734 5.71165 35.544 5.71165C36.1655 5.71165 36.7195 5.82706 37.206 6.05788C37.6925 6.28516 38.0849 6.60476 38.3832 7.01669C38.685 7.42862 38.8643 7.9098 38.9212 8.46023H37.3711C37.2859 8.0767 37.0906 7.74645 36.7852 7.46946C36.4833 7.19247 36.0785 7.05398 35.5707 7.05398C35.1268 7.05398 34.7379 7.17116 34.4041 7.40554C34.0739 7.63636 33.8164 7.96662 33.6317 8.39631C33.4471 8.82244 33.3548 9.3267 33.3548 9.90909C33.3548 10.5057 33.4453 11.0206 33.6264 11.4538C33.8075 11.8871 34.0632 12.2227 34.3935 12.4606C34.7273 12.6985 35.1197 12.8175 35.5707 12.8175C35.8725 12.8175 36.146 12.7624 36.391 12.6523C36.6396 12.5387 36.8473 12.3771 37.0142 12.1676C37.1847 11.9581 37.3036 11.706 37.3711 11.4112H38.9212C38.8643 11.9403 38.6921 12.4126 38.4045 12.8281C38.1168 13.2436 37.7315 13.5703 37.2486 13.8082C36.7692 14.0462 36.2063 14.1651 35.56 14.1651ZM44.0708 14.1651C43.3037 14.1651 42.6343 13.9893 42.0626 13.6378C41.4909 13.2862 41.047 12.7944 40.7309 12.1623C40.4149 11.5302 40.2568 10.7915 40.2568 9.94638C40.2568 9.09766 40.4149 8.35547 40.7309 7.71982C41.047 7.08416 41.4909 6.59055 42.0626 6.23899C42.6343 5.88743 43.3037 5.71165 44.0708 5.71165C44.8378 5.71165 45.5072 5.88743 46.0789 6.23899C46.6507 6.59055 47.0945 7.08416 47.4106 7.71982C47.7267 8.35547 47.8847 9.09766 47.8847 9.94638C47.8847 10.7915 47.7267 11.5302 47.4106 12.1623C47.0945 12.7944 46.6507 13.2862 46.0789 13.6378C45.5072 13.9893 44.8378 14.1651 44.0708 14.1651ZM44.0761 12.8281C44.5732 12.8281 44.9852 12.6967 45.3119 12.4339C45.6386 12.1712 45.8801 11.8214 46.0363 11.3846C46.1961 10.9478 46.276 10.4666 46.276 9.94105C46.276 9.41903 46.1961 8.93963 46.0363 8.50284C45.8801 8.0625 45.6386 7.70916 45.3119 7.44283C44.9852 7.17649 44.5732 7.04332 44.0761 7.04332C43.5754 7.04332 43.1599 7.17649 42.8296 7.44283C42.5029 7.70916 42.2597 8.0625 42.0999 8.50284C41.9436 8.93963 41.8655 9.41903 41.8655 9.94105C41.8655 10.4666 41.9436 10.9478 42.0999 11.3846C42.2597 11.8214 42.5029 12.1712 42.8296 12.4339C43.1599 12.6967 43.5754 12.8281 44.0761 12.8281ZM49.6625 14V5.81818H51.2551V14H49.6625ZM50.4668 4.55575C50.1898 4.55575 49.9519 4.46342 49.753 4.27876C49.5577 4.09055 49.46 3.86683 49.46 3.6076C49.46 3.34482 49.5577 3.12109 49.753 2.93643C49.9519 2.74822 50.1898 2.65412 50.4668 2.65412C50.7438 2.65412 50.9799 2.74822 51.1752 2.93643C51.3741 3.12109 51.4735 3.34482 51.4735 3.6076C51.4735 3.86683 51.3741 4.09055 51.1752 4.27876C50.9799 4.46342 50.7438 4.55575 50.4668 4.55575ZM54.9905 9.14205V14H53.3978V5.81818H54.9266V7.14986H55.0278C55.216 6.71662 55.5107 6.36861 55.912 6.10582C56.3169 5.84304 56.8264 5.71165 57.4408 5.71165C57.9983 5.71165 58.4866 5.82884 58.9056 6.06321C59.3247 6.29403 59.6496 6.63849 59.8804 7.09659C60.1112 7.55469 60.2267 8.12109 60.2267 8.79581V14H58.634V8.98757C58.634 8.39453 58.4795 7.93111 58.1705 7.5973C57.8616 7.25994 57.4372 7.09126 56.8975 7.09126C56.5281 7.09126 56.1997 7.17116 55.912 7.33097C55.6279 7.49077 55.4024 7.72514 55.2355 8.03409C55.0722 8.33949 54.9905 8.70881 54.9905 9.14205Z" fill="black"/>
<path d="M366.12 132H364.373L368.299 121.091H370.2L374.126 132H372.379L369.295 123.072H369.21L366.12 132ZM366.413 127.728H372.081V129.113H366.413V127.728ZM377.166 121.091V132H375.574V121.091H377.166ZM383.128 123.818V125.097H378.659V123.818H383.128ZM379.858 121.858H381.45V129.598C381.45 129.907 381.496 130.139 381.589 130.295C381.681 130.448 381.8 130.553 381.946 130.61C382.095 130.663 382.256 130.69 382.43 130.69C382.558 130.69 382.67 130.681 382.766 130.663C382.862 130.645 382.936 130.631 382.99 130.62L383.277 131.936C383.185 131.972 383.054 132.007 382.883 132.043C382.713 132.082 382.5 132.103 382.244 132.107C381.825 132.114 381.434 132.039 381.072 131.883C380.71 131.727 380.417 131.485 380.193 131.158C379.969 130.832 379.858 130.422 379.858 129.928V121.858ZM388.248 132.165C387.457 132.165 386.775 131.986 386.203 131.627C385.635 131.265 385.198 130.766 384.893 130.13C384.587 129.495 384.435 128.767 384.435 127.946C384.435 127.115 384.591 126.382 384.903 125.746C385.216 125.107 385.656 124.608 386.224 124.25C386.793 123.891 387.462 123.712 388.233 123.712C388.854 123.712 389.408 123.827 389.894 124.058C390.381 124.285 390.773 124.605 391.072 125.017C391.373 125.429 391.553 125.91 391.61 126.46H390.06C389.974 126.077 389.779 125.746 389.474 125.469C389.172 125.192 388.767 125.054 388.259 125.054C387.815 125.054 387.426 125.171 387.093 125.406C386.762 125.636 386.505 125.967 386.32 126.396C386.136 126.822 386.043 127.327 386.043 127.909C386.043 128.506 386.134 129.021 386.315 129.454C386.496 129.887 386.752 130.223 387.082 130.461C387.416 130.699 387.808 130.817 388.259 130.817C388.561 130.817 388.834 130.762 389.079 130.652C389.328 130.539 389.536 130.377 389.703 130.168C389.873 129.958 389.992 129.706 390.06 129.411H391.61C391.553 129.94 391.381 130.413 391.093 130.828C390.805 131.244 390.42 131.57 389.937 131.808C389.458 132.046 388.895 132.165 388.248 132.165ZM396.759 132.165C395.992 132.165 395.323 131.989 394.751 131.638C394.179 131.286 393.735 130.794 393.419 130.162C393.103 129.53 392.945 128.792 392.945 127.946C392.945 127.098 393.103 126.355 393.419 125.72C393.735 125.084 394.179 124.591 394.751 124.239C395.323 123.887 395.992 123.712 396.759 123.712C397.526 123.712 398.196 123.887 398.767 124.239C399.339 124.591 399.783 125.084 400.099 125.72C400.415 126.355 400.573 127.098 400.573 127.946C400.573 128.792 400.415 129.53 400.099 130.162C399.783 130.794 399.339 131.286 398.767 131.638C398.196 131.989 397.526 132.165 396.759 132.165ZM396.765 130.828C397.262 130.828 397.674 130.697 398 130.434C398.327 130.171 398.569 129.821 398.725 129.385C398.885 128.948 398.964 128.467 398.964 127.941C398.964 127.419 398.885 126.94 398.725 126.503C398.569 126.062 398.327 125.709 398 125.443C397.674 125.176 397.262 125.043 396.765 125.043C396.264 125.043 395.848 125.176 395.518 125.443C395.191 125.709 394.948 126.062 394.788 126.503C394.632 126.94 394.554 127.419 394.554 127.941C394.554 128.467 394.632 128.948 394.788 129.385C394.948 129.821 395.191 130.171 395.518 130.434C395.848 130.697 396.264 130.828 396.765 130.828ZM402.351 132V123.818H403.944V132H402.351ZM403.155 122.556C402.878 122.556 402.64 122.463 402.441 122.279C402.246 122.091 402.149 121.867 402.149 121.608C402.149 121.345 402.246 121.121 402.441 120.936C402.64 120.748 402.878 120.654 403.155 120.654C403.432 120.654 403.668 120.748 403.864 120.936C404.063 121.121 404.162 121.345 404.162 121.608C404.162 121.867 404.063 122.091 403.864 122.279C403.668 122.463 403.432 122.556 403.155 122.556ZM407.679 127.142V132H406.086V123.818H407.615V125.15H407.716C407.904 124.717 408.199 124.369 408.6 124.106C409.005 123.843 409.515 123.712 410.129 123.712C410.687 123.712 411.175 123.829 411.594 124.063C412.013 124.294 412.338 124.638 412.569 125.097C412.8 125.555 412.915 126.121 412.915 126.796V132H411.322V126.988C411.322 126.395 411.168 125.931 410.859 125.597C410.55 125.26 410.126 125.091 409.586 125.091C409.217 125.091 408.888 125.171 408.6 125.331C408.316 125.491 408.091 125.725 407.924 126.034C407.761 126.339 407.679 126.709 407.679 127.142ZM421.182 125.816L419.739 126.071C419.678 125.887 419.582 125.711 419.451 125.544C419.323 125.377 419.149 125.24 418.929 125.134C418.709 125.027 418.434 124.974 418.103 124.974C417.652 124.974 417.276 125.075 416.974 125.278C416.672 125.477 416.521 125.734 416.521 126.05C416.521 126.324 416.623 126.544 416.825 126.711C417.027 126.877 417.354 127.014 417.805 127.121L419.105 127.419C419.858 127.593 420.419 127.861 420.788 128.223C421.157 128.586 421.342 129.056 421.342 129.635C421.342 130.125 421.2 130.562 420.916 130.945C420.635 131.325 420.243 131.624 419.739 131.84C419.238 132.057 418.657 132.165 417.997 132.165C417.081 132.165 416.333 131.97 415.754 131.579C415.175 131.185 414.82 130.626 414.689 129.901L416.228 129.667C416.324 130.068 416.521 130.372 416.82 130.578C417.118 130.78 417.507 130.881 417.986 130.881C418.508 130.881 418.925 130.773 419.238 130.556C419.55 130.336 419.707 130.068 419.707 129.752C419.707 129.496 419.611 129.282 419.419 129.108C419.231 128.934 418.941 128.802 418.551 128.713L417.166 128.41C416.402 128.236 415.838 127.959 415.472 127.579C415.11 127.199 414.929 126.718 414.929 126.135C414.929 125.652 415.064 125.23 415.333 124.868C415.603 124.505 415.976 124.223 416.452 124.021C416.928 123.815 417.473 123.712 418.087 123.712C418.972 123.712 419.668 123.903 420.175 124.287C420.683 124.667 421.019 125.176 421.182 125.816Z" fill="black"/>
<path d="M323.148 245.957C323.092 245.452 322.857 245.062 322.445 244.785C322.033 244.504 321.515 244.364 320.89 244.364C320.442 244.364 320.055 244.435 319.729 244.577C319.402 244.716 319.148 244.907 318.967 245.152C318.789 245.394 318.701 245.669 318.701 245.978C318.701 246.237 318.761 246.461 318.882 246.649C319.006 246.837 319.168 246.995 319.366 247.123C319.569 247.248 319.786 247.352 320.016 247.438C320.247 247.519 320.469 247.587 320.682 247.64L321.748 247.917C322.096 248.002 322.452 248.118 322.818 248.263C323.184 248.409 323.523 248.6 323.836 248.838C324.148 249.076 324.4 249.371 324.592 249.723C324.787 250.074 324.885 250.495 324.885 250.985C324.885 251.603 324.725 252.152 324.406 252.631C324.089 253.11 323.63 253.489 323.026 253.766C322.426 254.043 321.7 254.181 320.847 254.181C320.031 254.181 319.324 254.051 318.727 253.792C318.131 253.533 317.664 253.165 317.326 252.69C316.989 252.21 316.803 251.642 316.767 250.985H318.418C318.45 251.379 318.578 251.708 318.802 251.971C319.029 252.23 319.319 252.423 319.67 252.551C320.025 252.675 320.414 252.738 320.837 252.738C321.302 252.738 321.716 252.665 322.078 252.519C322.444 252.37 322.731 252.164 322.941 251.901C323.15 251.635 323.255 251.324 323.255 250.969C323.255 250.646 323.163 250.381 322.978 250.175C322.797 249.969 322.55 249.799 322.238 249.664C321.929 249.529 321.579 249.41 321.188 249.307L319.899 248.956C319.026 248.718 318.333 248.368 317.822 247.906C317.314 247.445 317.06 246.834 317.06 246.074C317.06 245.445 317.23 244.897 317.571 244.428C317.912 243.959 318.374 243.595 318.956 243.336C319.539 243.073 320.196 242.942 320.927 242.942C321.666 242.942 322.317 243.071 322.882 243.331C323.45 243.59 323.898 243.947 324.224 244.401C324.551 244.852 324.722 245.371 324.736 245.957H323.148ZM330.543 245.818V247.097H326.074V245.818H330.543ZM327.273 243.858H328.865V251.598C328.865 251.907 328.911 252.139 329.004 252.295C329.096 252.448 329.215 252.553 329.361 252.61C329.51 252.663 329.671 252.69 329.845 252.69C329.973 252.69 330.085 252.681 330.181 252.663C330.277 252.645 330.351 252.631 330.405 252.62L330.692 253.936C330.6 253.972 330.469 254.007 330.298 254.043C330.128 254.082 329.915 254.103 329.659 254.107C329.24 254.114 328.849 254.039 328.487 253.883C328.125 253.727 327.832 253.485 327.608 253.158C327.384 252.832 327.273 252.422 327.273 251.928V243.858ZM334.686 254.181C334.168 254.181 333.699 254.085 333.28 253.893C332.861 253.698 332.529 253.416 332.284 253.047C332.042 252.677 331.922 252.224 331.922 251.688C331.922 251.227 332.01 250.847 332.188 250.548C332.365 250.25 332.605 250.014 332.907 249.84C333.209 249.666 333.546 249.534 333.919 249.446C334.292 249.357 334.672 249.289 335.059 249.243C335.549 249.186 335.947 249.14 336.252 249.105C336.558 249.066 336.779 249.004 336.918 248.918C337.056 248.833 337.126 248.695 337.126 248.503V248.466C337.126 248 336.994 247.64 336.732 247.384C336.472 247.129 336.085 247.001 335.57 247.001C335.034 247.001 334.612 247.12 334.303 247.358C333.997 247.592 333.786 247.853 333.669 248.141L332.172 247.8C332.349 247.303 332.609 246.901 332.95 246.596C333.294 246.287 333.69 246.063 334.137 245.925C334.585 245.783 335.055 245.712 335.549 245.712C335.876 245.712 336.222 245.751 336.588 245.829C336.957 245.903 337.301 246.042 337.621 246.244C337.944 246.447 338.209 246.736 338.415 247.113C338.621 247.485 338.724 247.97 338.724 248.567V254H337.168V252.881H337.104C337.001 253.087 336.847 253.29 336.641 253.489C336.435 253.687 336.17 253.853 335.847 253.984C335.524 254.115 335.137 254.181 334.686 254.181ZM335.032 252.903C335.473 252.903 335.849 252.816 336.162 252.642C336.478 252.468 336.717 252.24 336.881 251.96C337.048 251.676 337.131 251.372 337.131 251.049V249.994C337.074 250.051 336.964 250.104 336.801 250.154C336.641 250.2 336.458 250.241 336.252 250.277C336.046 250.309 335.846 250.339 335.65 250.367C335.455 250.392 335.292 250.413 335.16 250.431C334.851 250.47 334.569 250.536 334.313 250.628C334.061 250.721 333.859 250.854 333.706 251.028C333.557 251.198 333.482 251.425 333.482 251.71C333.482 252.104 333.628 252.402 333.919 252.604C334.21 252.803 334.581 252.903 335.032 252.903ZM340.973 254V243.091H342.566V247.145H342.661C342.754 246.974 342.887 246.777 343.061 246.553C343.235 246.33 343.476 246.134 343.785 245.967C344.094 245.797 344.503 245.712 345.011 245.712C345.671 245.712 346.261 245.879 346.779 246.212C347.297 246.546 347.704 247.027 347.999 247.656C348.297 248.284 348.446 249.041 348.446 249.925C348.446 250.809 348.299 251.567 348.004 252.2C347.709 252.828 347.305 253.313 346.79 253.654C346.275 253.991 345.687 254.16 345.027 254.16C344.529 254.16 344.123 254.076 343.807 253.909C343.494 253.743 343.249 253.547 343.072 253.324C342.894 253.1 342.757 252.901 342.661 252.727H342.528V254H340.973ZM342.534 249.909C342.534 250.484 342.617 250.989 342.784 251.422C342.951 251.855 343.192 252.194 343.508 252.439C343.824 252.681 344.212 252.801 344.67 252.801C345.146 252.801 345.543 252.675 345.863 252.423C346.182 252.168 346.424 251.821 346.587 251.385C346.754 250.948 346.838 250.456 346.838 249.909C346.838 249.369 346.756 248.885 346.593 248.455C346.433 248.025 346.191 247.686 345.868 247.438C345.549 247.189 345.149 247.065 344.67 247.065C344.208 247.065 343.817 247.184 343.498 247.422C343.182 247.659 342.942 247.991 342.779 248.418C342.615 248.844 342.534 249.341 342.534 249.909ZM351.827 243.091V254H350.235V243.091H351.827ZM357.496 254.165C356.69 254.165 355.996 253.993 355.414 253.648C354.835 253.3 354.387 252.812 354.071 252.184C353.759 251.551 353.603 250.811 353.603 249.962C353.603 249.124 353.759 248.386 354.071 247.746C354.387 247.107 354.828 246.608 355.392 246.25C355.96 245.891 356.625 245.712 357.384 245.712C357.846 245.712 358.294 245.788 358.727 245.941C359.16 246.093 359.549 246.333 359.893 246.66C360.238 246.987 360.509 247.411 360.708 247.933C360.907 248.451 361.007 249.082 361.007 249.824V250.388H354.503V249.195H359.446C359.446 248.776 359.361 248.405 359.19 248.082C359.02 247.755 358.78 247.498 358.471 247.31C358.166 247.121 357.807 247.027 357.395 247.027C356.948 247.027 356.557 247.137 356.223 247.358C355.893 247.574 355.637 247.858 355.456 248.21C355.279 248.558 355.19 248.936 355.19 249.344V250.277C355.19 250.824 355.286 251.289 355.478 251.672C355.673 252.056 355.945 252.349 356.293 252.551C356.641 252.75 357.047 252.849 357.512 252.849C357.814 252.849 358.089 252.807 358.338 252.722C358.587 252.633 358.801 252.501 358.983 252.327C359.164 252.153 359.302 251.939 359.398 251.683L360.905 251.955C360.785 252.398 360.568 252.787 360.256 253.121C359.947 253.451 359.558 253.709 359.089 253.893C358.624 254.075 358.093 254.165 357.496 254.165ZM366.22 254.165C365.428 254.165 364.746 253.986 364.175 253.627C363.607 253.265 363.17 252.766 362.864 252.13C362.559 251.495 362.406 250.767 362.406 249.946C362.406 249.115 362.562 248.382 362.875 247.746C363.188 247.107 363.628 246.608 364.196 246.25C364.764 245.891 365.434 245.712 366.204 245.712C366.826 245.712 367.38 245.827 367.866 246.058C368.353 246.285 368.745 246.605 369.043 247.017C369.345 247.429 369.525 247.91 369.581 248.46H368.031C367.946 248.077 367.751 247.746 367.445 247.469C367.143 247.192 366.739 247.054 366.231 247.054C365.787 247.054 365.398 247.171 365.064 247.406C364.734 247.636 364.477 247.967 364.292 248.396C364.107 248.822 364.015 249.327 364.015 249.909C364.015 250.506 364.105 251.021 364.287 251.454C364.468 251.887 364.723 252.223 365.054 252.461C365.387 252.699 365.78 252.817 366.231 252.817C366.533 252.817 366.806 252.762 367.051 252.652C367.3 252.539 367.507 252.377 367.674 252.168C367.845 251.958 367.964 251.706 368.031 251.411H369.581C369.525 251.94 369.352 252.413 369.065 252.828C368.777 253.244 368.392 253.57 367.909 253.808C367.429 254.046 366.866 254.165 366.22 254.165ZM374.731 254.165C373.964 254.165 373.294 253.989 372.723 253.638C372.151 253.286 371.707 252.794 371.391 252.162C371.075 251.53 370.917 250.792 370.917 249.946C370.917 249.098 371.075 248.355 371.391 247.72C371.707 247.084 372.151 246.591 372.723 246.239C373.294 245.887 373.964 245.712 374.731 245.712C375.498 245.712 376.167 245.887 376.739 246.239C377.311 246.591 377.755 247.084 378.071 247.72C378.387 248.355 378.545 249.098 378.545 249.946C378.545 250.792 378.387 251.53 378.071 252.162C377.755 252.794 377.311 253.286 376.739 253.638C376.167 253.989 375.498 254.165 374.731 254.165ZM374.736 252.828C375.233 252.828 375.645 252.697 375.972 252.434C376.299 252.171 376.54 251.821 376.696 251.385C376.856 250.948 376.936 250.467 376.936 249.941C376.936 249.419 376.856 248.94 376.696 248.503C376.54 248.062 376.299 247.709 375.972 247.443C375.645 247.176 375.233 247.043 374.736 247.043C374.236 247.043 373.82 247.176 373.49 247.443C373.163 247.709 372.92 248.062 372.76 248.503C372.604 248.94 372.526 249.419 372.526 249.941C372.526 250.467 372.604 250.948 372.76 251.385C372.92 251.821 373.163 252.171 373.49 252.434C373.82 252.697 374.236 252.828 374.736 252.828ZM380.323 254V245.818H381.915V254H380.323ZM381.127 244.556C380.85 244.556 380.612 244.463 380.413 244.279C380.218 244.091 380.12 243.867 380.12 243.608C380.12 243.345 380.218 243.121 380.413 242.936C380.612 242.748 380.85 242.654 381.127 242.654C381.404 242.654 381.64 242.748 381.835 242.936C382.034 243.121 382.134 243.345 382.134 243.608C382.134 243.867 382.034 244.091 381.835 244.279C381.64 244.463 381.404 244.556 381.127 244.556ZM385.651 249.142V254H384.058V245.818H385.587V247.15H385.688C385.876 246.717 386.171 246.369 386.572 246.106C386.977 245.843 387.487 245.712 388.101 245.712C388.658 245.712 389.147 245.829 389.566 246.063C389.985 246.294 390.31 246.638 390.541 247.097C390.771 247.555 390.887 248.121 390.887 248.796V254H389.294V248.988C389.294 248.395 389.14 247.931 388.831 247.597C388.522 247.26 388.097 247.091 387.558 247.091C387.188 247.091 386.86 247.171 386.572 247.331C386.288 247.491 386.063 247.725 385.896 248.034C385.732 248.339 385.651 248.709 385.651 249.142ZM399.154 247.816L397.71 248.071C397.65 247.887 397.554 247.711 397.423 247.544C397.295 247.377 397.121 247.24 396.901 247.134C396.68 247.027 396.405 246.974 396.075 246.974C395.624 246.974 395.248 247.075 394.946 247.278C394.644 247.477 394.493 247.734 394.493 248.05C394.493 248.324 394.594 248.544 394.797 248.711C394.999 248.877 395.326 249.014 395.777 249.121L397.076 249.419C397.829 249.593 398.39 249.861 398.76 250.223C399.129 250.586 399.314 251.056 399.314 251.635C399.314 252.125 399.172 252.562 398.888 252.945C398.607 253.325 398.215 253.624 397.71 253.84C397.21 254.057 396.629 254.165 395.968 254.165C395.052 254.165 394.305 253.97 393.726 253.579C393.147 253.185 392.792 252.626 392.661 251.901L394.2 251.667C394.296 252.068 394.493 252.372 394.791 252.578C395.09 252.78 395.478 252.881 395.958 252.881C396.48 252.881 396.897 252.773 397.21 252.556C397.522 252.336 397.678 252.068 397.678 251.752C397.678 251.496 397.582 251.282 397.391 251.108C397.203 250.934 396.913 250.802 396.522 250.713L395.138 250.41C394.374 250.236 393.809 249.959 393.444 249.579C393.081 249.199 392.9 248.718 392.9 248.135C392.9 247.652 393.035 247.23 393.305 246.868C393.575 246.505 393.948 246.223 394.424 246.021C394.9 245.815 395.445 245.712 396.059 245.712C396.943 245.712 397.639 245.903 398.147 246.287C398.655 246.667 398.991 247.176 399.154 247.816Z" fill="black"/>
<mask id="path-5-inside-1_332_1277" fill="white">
<path d="M218 0C201.95 -1.91397e-07 186.068 3.27434 171.327 9.62274C156.586 15.9711 143.294 25.2601 132.266 36.9215C121.238 48.5829 112.705 62.3716 107.188 77.444C101.672 92.5165 99.2885 108.556 100.184 124.581C101.079 140.606 105.234 156.28 112.394 170.645C119.555 185.009 129.571 197.762 141.829 208.122C154.088 218.483 168.331 226.234 183.687 230.901C199.044 235.568 215.191 237.053 231.142 235.266L223.044 163.01C216.922 163.696 210.724 163.126 204.83 161.334C198.936 159.543 193.469 156.568 188.764 152.591C184.059 148.615 180.214 143.72 177.466 138.206C174.717 132.693 173.123 126.677 172.779 120.526C172.436 114.375 173.35 108.219 175.468 102.434C177.585 96.6484 180.86 91.356 185.093 86.88C189.326 82.4041 194.428 78.8387 200.086 76.4021C205.744 73.9654 211.84 72.7086 218 72.7086L218 0Z"/>
</mask>
<path d="M218 0C201.95 -1.91397e-07 186.068 3.27434 171.327 9.62274C156.586 15.9711 143.294 25.2601 132.266 36.9215C121.238 48.5829 112.705 62.3716 107.188 77.444C101.672 92.5165 99.2885 108.556 100.184 124.581C101.079 140.606 105.234 156.28 112.394 170.645C119.555 185.009 129.571 197.762 141.829 208.122C154.088 218.483 168.331 226.234 183.687 230.901C199.044 235.568 215.191 237.053 231.142 235.266L223.044 163.01C216.922 163.696 210.724 163.126 204.83 161.334C198.936 159.543 193.469 156.568 188.764 152.591C184.059 148.615 180.214 143.72 177.466 138.206C174.717 132.693 173.123 126.677 172.779 120.526C172.436 114.375 173.35 108.219 175.468 102.434C177.585 96.6484 180.86 91.356 185.093 86.88C189.326 82.4041 194.428 78.8387 200.086 76.4021C205.744 73.9654 211.84 72.7086 218 72.7086L218 0Z" fill="#F68819" stroke="black" stroke-width="2" mask="url(#path-5-inside-1_332_1277)"/>
<mask id="path-6-inside-2_332_1277" fill="white">
<path d="M218 0C240.085 2.63365e-07 261.727 6.19807 280.465 17.8892C299.202 29.5804 314.282 46.2953 323.99 66.1327L258.681 98.092C254.955 90.4779 249.167 84.0623 241.976 79.5749C234.784 75.0876 226.477 72.7086 218 72.7086L218 0Z"/>
</mask>
<path d="M218 0C240.085 2.63365e-07 261.727 6.19807 280.465 17.8892C299.202 29.5804 314.282 46.2953 323.99 66.1327L258.681 98.092C254.955 90.4779 249.167 84.0623 241.976 79.5749C234.784 75.0876 226.477 72.7086 218 72.7086L218 0Z" fill="#BFBDCE" stroke="black" stroke-width="2" mask="url(#path-6-inside-2_332_1277)"/>
<mask id="path-7-inside-3_332_1277" fill="white">
<path d="M323.749 65.644C337.312 93.0383 339.715 124.627 330.452 153.758C321.189 182.888 300.983 207.288 274.089 221.817L239.528 157.848C249.851 152.271 257.606 142.906 261.162 131.725C264.717 120.544 263.795 108.419 258.589 97.9044L323.749 65.644Z"/>
</mask>
<path d="M323.749 65.644C337.312 93.0383 339.715 124.627 330.452 153.758C321.189 182.888 300.983 207.288 274.089 221.817L239.528 157.848C249.851 152.271 257.606 142.906 261.162 131.725C264.717 120.544 263.795 108.419 258.589 97.9044L323.749 65.644Z" fill="#2869FE" stroke="black" stroke-width="2" mask="url(#path-7-inside-3_332_1277)"/>
<mask id="path-8-inside-4_332_1277" fill="white">
<path d="M275.245 221.184C261.492 228.814 246.352 233.618 230.715 235.313L222.88 163.028C228.882 162.377 234.693 160.533 239.972 157.605L275.245 221.184Z"/>
</mask>
<path d="M275.245 221.184C261.492 228.814 246.352 233.618 230.715 235.313L222.88 163.028C228.882 162.377 234.693 160.533 239.972 157.605L275.245 221.184Z" fill="#229770" stroke="black" stroke-width="2" mask="url(#path-8-inside-4_332_1277)"/>
<path d="M400 258.5H302L267.5 224" stroke="black" stroke-dasharray="2 2"/>
<path d="M421 135.5H334" stroke="black" stroke-dasharray="2 2"/>
<path d="M391.5 17.5H323L303 37.5" stroke="black" stroke-dasharray="2 2"/>
<path d="M13 18H93L123 48" stroke="black" stroke-dasharray="2 2"/>
<circle cx="4.5" cy="8.5" r="4.5" fill="#F68819"/>
<circle cx="314.5" cy="8.5" r="4.5" fill="#BFBDCE"/>
<circle cx="356.5" cy="127.5" r="4.5" fill="#2869FE"/>
<circle cx="307.5" cy="249.5" r="4.5" fill="#229770"/>
</svg>
